<?xml version="1.0" encoding="UTF-8" standalone="no"?>
<!-- Created with Inkscape (http://www.inkscape.org/) -->

<svg
   xmlns:dc="http://purl.org/dc/elements/1.1/"
   xmlns:cc="http://creativecommons.org/ns#"
   xmlns:rdf="http://www.w3.org/1999/02/22-rdf-syntax-ns#"
   xmlns:svg="http://www.w3.org/2000/svg"
   xmlns="http://www.w3.org/2000/svg"
   xmlns:xlink="http://www.w3.org/1999/xlink"
   xmlns:sodipodi="http://sodipodi.sourceforge.net/DTD/sodipodi-0.dtd"
   xmlns:inkscape="http://www.inkscape.org/namespaces/inkscape"
   width="258.12805"
   height="76.145317"
   id="svg3716"
   version="1.1"
   inkscape:version="0.48.1 r9760"
   sodipodi:docname="plankje donker.svg">
  <defs
     id="defs3718">
    <linearGradient
       id="linearGradient3091">
      <stop
         style="stop-color:#7f4823;stop-opacity:1;"
         offset="0"
         id="stop3093" />
      <stop
         style="stop-color:#392010;stop-opacity:1;"
         offset="1"
         id="stop3095" />
    </linearGradient>
    <linearGradient
       id="linearGradient3692">
      <stop
         style="stop-color:#ffe37b;stop-opacity:1;"
         offset="0"
         id="stop3694" />
      <stop
         style="stop-color:#9a602c;stop-opacity:1;"
         offset="1"
         id="stop3696" />
    </linearGradient>
    <radialGradient
       inkscape:collect="always"
       xlink:href="#linearGradient4509"
       id="radialGradient4515"
       cx="612.64471"
       cy="254.94562"
       fx="612.64471"
       fy="254.94562"
       r="66.887825"
       gradientTransform="matrix(1.5226,-0.0487015,0.0186139,0.581943,-324.913,100.455)"
       gradientUnits="userSpaceOnUse" />
    <linearGradient
       id="linearGradient4509">
      <stop
         style="stop-color:#000000;stop-opacity:1;"
         offset="0"
         id="stop4511" />
      <stop
         id="stop4517"
         offset="0.83687943"
         style="stop-color:#000000;stop-opacity:0.49803922;" />
      <stop
         style="stop-color:#000000;stop-opacity:0;"
         offset="1"
         id="stop4513" />
    </linearGradient>
    <radialGradient
       inkscape:collect="always"
       xlink:href="#linearGradient3091"
       id="radialGradient3108"
       gradientUnits="userSpaceOnUse"
       gradientTransform="matrix(-0.0142405,1.6399159,-3.3739607,-0.03577247,3745.1844,-1087.5107)"
       cx="815.1507"
       cy="933.96484"
       fx="815.1507"
       fy="933.96484"
       r="54.6875" />
    <radialGradient
       inkscape:collect="always"
       xlink:href="#linearGradient3091"
       id="radialGradient4045"
       gradientUnits="userSpaceOnUse"
       gradientTransform="matrix(-0.0142405,1.6399159,-3.3739607,-0.03577247,3745.1844,-1087.5107)"
       cx="815.1507"
       cy="933.96484"
       fx="815.1507"
       fy="933.96484"
       r="54.6875" />
    <radialGradient
       inkscape:collect="always"
       xlink:href="#linearGradient3091"
       id="radialGradient4058"
       gradientUnits="userSpaceOnUse"
       gradientTransform="matrix(-0.0142405,1.6399159,-3.3739607,-0.03577247,3745.1844,-1087.5107)"
       cx="815.1507"
       cy="933.96484"
       fx="815.1507"
       fy="933.96484"
       r="54.6875" />
    <clipPath
       clipPathUnits="userSpaceOnUse"
       id="clipPath3021">
      <path
         sodipodi:nodetypes="ccccc"
         inkscape:connector-curvature="0"
         id="path3023"
         d="m 740.06024,198.5164 -0.19756,76.14532 -257.73293,0 -0.19757,-76.14532 z"
         style="color:#000000;fill:url(#radialGradient3025);fill-opacity:1;fill-rule:nonzero;stroke:none;stroke-width:0.30000001;marker:none;visibility:visible;display:inline;overflow:visible;enable-background:accumulate" />
    </clipPath>
    <radialGradient
       inkscape:collect="always"
       xlink:href="#linearGradient3091"
       id="radialGradient3025"
       gradientUnits="userSpaceOnUse"
       gradientTransform="matrix(-0.0142405,1.6399159,-3.3739607,-0.03577247,3739.4487,-1083.5107)"
       cx="815.1507"
       cy="933.96484"
       fx="815.1507"
       fy="933.96484"
       r="54.6875" />
    <clipPath
       clipPathUnits="userSpaceOnUse"
       id="clipPath3030">
      <path
         sodipodi:nodetypes="ccccc"
         inkscape:connector-curvature="0"
         id="path3032"
         d="m 731.84927,198.5164 -0.18523,76.14532 -241.6562,0 -0.18524,-76.14532 z"
         style="color:#000000;fill:url(#radialGradient3034);fill-opacity:1;fill-rule:nonzero;stroke:none;stroke-width:0.30000001;marker:none;visibility:visible;display:inline;overflow:visible;enable-background:accumulate" />
    </clipPath>
    <radialGradient
       inkscape:collect="always"
       xlink:href="#linearGradient3091"
       id="radialGradient3034"
       gradientUnits="userSpaceOnUse"
       gradientTransform="matrix(-0.01335221,1.6399159,-3.1635015,-0.03577247,3544.1434,-1083.5107)"
       cx="815.1507"
       cy="933.96484"
       fx="815.1507"
       fy="933.96484"
       r="54.6875" />
    <clipPath
       clipPathUnits="userSpaceOnUse"
       id="clipPath3036">
      <path
         sodipodi:nodetypes="ccccc"
         inkscape:connector-curvature="0"
         id="path3038"
         d="m 737.49206,194.5164 -0.18646,76.14532 -243.25831,0 -0.18648,-76.14532 z"
         style="color:#000000;fill:url(#radialGradient3040);fill-opacity:1;fill-rule:nonzero;stroke:none;stroke-width:0.30000001;marker:none;visibility:visible;display:inline;overflow:visible;enable-background:accumulate" />
    </clipPath>
    <radialGradient
       inkscape:collect="always"
       xlink:href="#linearGradient3091"
       id="radialGradient3040"
       gradientUnits="userSpaceOnUse"
       gradientTransform="matrix(-0.01344073,1.6399159,-3.1844746,-0.03577247,3568.4309,-1087.5107)"
       cx="815.1507"
       cy="933.96484"
       fx="815.1507"
       fy="933.96484"
       r="54.6875" />
  </defs>
  <sodipodi:namedview
     id="base"
     pagecolor="#ffffff"
     bordercolor="#666666"
     borderopacity="1.0"
     inkscape:pageopacity="0.0"
     inkscape:pageshadow="2"
     inkscape:zoom="4.7418019"
     inkscape:cx="116.84541"
     inkscape:cy="57.281233"
     inkscape:document-units="px"
     inkscape:current-layer="layer1"
     showgrid="false"
     fit-margin-top="0"
     fit-margin-left="0"
     fit-margin-right="0"
     fit-margin-bottom="0"
     inkscape:window-width="1680"
     inkscape:window-height="1002"
     inkscape:window-x="0"
     inkscape:window-y="0"
     inkscape:window-maximized="0" />
  <metadata
     id="metadata3721">
    <rdf:RDF>
      <cc:Work
         rdf:about="">
        <dc:format>image/svg+xml</dc:format>
        <dc:type
           rdf:resource="http://purl.org/dc/dcmitype/StillImage" />
        <dc:title />
      </cc:Work>
    </rdf:RDF>
  </metadata>
  <g
     inkscape:label="Ebene 1"
     inkscape:groupmode="layer"
     id="layer1"
     transform="translate(-487.66791,-194.5164)">
    <path
       style="color:#000000;fill:url(#radialGradient4058);fill-opacity:1;fill-rule:nonzero;stroke:none;stroke-width:0.30000001;marker:none;visibility:visible;display:inline;overflow:visible;enable-background:accumulate"
       d="m 745.79597,194.5164 -0.19756,76.14532 -257.73293,0 -0.19757,-76.14532 z"
       id="rect3077"
       inkscape:connector-curvature="0"
       sodipodi:nodetypes="ccccc" />
    <g
       id="g4060"
       style="fill:#733c00;fill-opacity:0.34552846"
       transform="matrix(1.0595031,0,0,1,-35.579154,0)"
       clip-path="url(#clipPath3036)">
      <path
         id="path3256"
         d="m 507.34375,195.0625 c -0.80876,0.94732 0.15149,2.20624 1.0625,2.65625 5.05691,1.87448 10.5144,1.85275 15.82453,2.17497 8.96518,0.60946 17.95002,0.9126 26.93389,1.06202 12.8389,0.17273 25.67492,-0.27114 38.51185,-0.42654 8.94375,-0.16074 17.89066,-0.19464 26.83276,0.072 10.06646,0.29472 20.1378,0.56921 30.20947,0.46128 17.74986,-0.33644 35.509,-0.68814 53.25888,-0.16299 8.52921,0.2271 17.06215,0.37294 25.58487,0.78799 1.08363,0.22962 3.23465,0.93157 3.40625,-0.75 -0.15196,-1.52549 -1.9133,-1.51768 -3.02466,-1.22239 -6.82197,0.3784 -13.65586,0.0759 -20.48297,0.0701 -19.98914,-0.23665 -39.97927,-0.39046 -59.96869,-0.5982 -17.38214,-0.2268 -34.75964,-0.80712 -52.14375,-0.86241 -17.11069,0.11842 -34.21759,0.75151 -51.33004,0.57497 -7.11664,-0.1707 -14.24844,-0.30693 -21.32146,-1.18154 -4.16837,-0.45351 -8.29249,-1.32784 -12.25968,-2.68678 -0.33985,-0.005 -0.85803,-0.35921 -1.09375,0.0312 z"
         style="fill:#733c00;fill-opacity:0.34552846;fill-rule:nonzero;stroke:none"
         inkscape:connector-curvature="0" />
      <path
         id="path3254"
         d="m 492,203.21875 c -1.05743,0.84461 -0.19853,2.96496 1.1875,2.65625 12.26625,0.5539 24.52744,1.24992 36.80099,1.62272 7.77568,0.23868 15.5552,0.29695 23.33362,0.18409 15.63609,-0.16396 31.26862,-0.57079 46.90406,-0.78485 21.2862,-0.41283 42.57318,-0.78346 63.85954,-1.1877 14.36524,-0.23399 28.72991,-0.55555 43.0969,-0.64676 7.72137,-0.002 15.44051,0.20336 23.16114,0.28125 0.80447,0.66683 2.90553,0.6308 2.6875,-0.8125 -2.01649,-0.40695 -4.08588,-0.003 -6.11867,-0.27224 -11.83119,-0.4782 -23.66654,-1.07319 -35.51114,-0.91868 -24.65061,0.17021 -49.29753,0.65929 -73.94748,0.89647 -22.15115,0.21662 -44.30279,0.38837 -66.45396,0.60695 -9.62169,0.0146 -19.248,0.1435 -28.86294,-0.30529 -9.74178,-0.38636 -19.47743,-0.93756 -29.21225,-1.44471 -0.30725,0.0413 -0.66233,-0.10361 -0.92481,0.125 z"
         style="fill:#733c00;fill-opacity:0.34552846;fill-rule:nonzero;stroke:none"
         inkscape:connector-curvature="0" />
      <path
         id="path3252"
         d="m 740.9375,208.125 c -42.56872,0.8585 -85.13639,1.79402 -127.7095,2.41059 -35.60268,0.48967 -71.20711,0.85461 -106.80801,1.46886 -3.83791,0.061 -7.67583,0.12203 -11.51374,0.18305 -1.23332,-0.41245 -3.11748,0.18191 -3.15625,1.6875 0.39191,1.37043 2.0464,1.6848 3.28125,1.625 13.92593,-0.29898 27.85144,-0.64147 41.77896,-0.87365 28.03824,-0.50596 56.07722,-0.9712 84.11401,-1.5548 37.89498,-0.79161 75.78848,-1.6623 113.68309,-2.46488 1.70941,0.004 3.42548,-0.12627 5.12413,0.0808 0.99067,0.0395 2.62416,-0.4194 2.4583,-1.66734 -0.089,-0.56935 -0.66576,-1.07912 -1.25224,-0.89516 z"
         style="fill:#733c00;fill-opacity:0.34552846;fill-rule:nonzero;stroke:none"
         inkscape:connector-curvature="0" />
      <path
         id="path3250"
         d="m 735.90625,218.875 c -19.15226,0.45918 -38.31497,0.24543 -57.46492,0.83438 -15.88868,0.36031 -31.7686,1.08108 -47.66102,1.26947 -8.88269,0.12398 -17.76749,0.0254 -26.64445,-0.31981 -12.47476,-0.37122 -24.94272,-0.93792 -37.41916,-1.25766 -11.11872,-0.32528 -22.25838,-0.40669 -33.36128,0.37096 -13.02839,0.75466 -26.05276,1.57977 -39.07417,2.44641 -1.17431,-0.022 -2.73853,-0.37023 -3.53125,0.75 -0.63357,0.94517 0.30848,2.10812 1.28125,2.28125 1.35278,0.26567 2.69899,-0.20041 4.06923,-0.0985 20.27291,-0.45459 40.54473,-0.98768 60.81939,-1.37577 17.09209,-0.32685 34.18838,-0.39406 51.28322,-0.35526 17.08395,0.10142 34.16415,-0.37668 51.23531,-0.99254 17.68407,-0.63011 35.37281,-1.2043 53.06929,-1.29383 7.21606,-0.0748 14.43411,-0.0677 21.64856,0.11587 1.11574,0.2273 2.96057,0.44843 3.34375,-0.96875 0.18469,-0.81033 -0.83686,-1.59811 -1.59375,-1.40625 z"
         style="fill:#733c00;fill-opacity:0.34552846;fill-rule:nonzero;stroke:none"
         inkscape:connector-curvature="0" />
      <path
         id="path3248"
         d="m 659.875,226.84375 c -53.61458,1.45833 -107.22917,2.91667 -160.84375,4.375 -0.80349,-0.53843 -3.07619,-0.19053 -2.5,1.09375 0.87979,0.73276 2.22508,0.25098 3.29358,0.29869 1.4452,0.0386 2.8895,0.22975 4.34266,0.24767 7.83568,0.30388 15.67739,-0.006 23.51399,-0.12182 28.30009,-0.67447 56.59588,-1.52183 84.89823,-2.10185 23.23247,-0.47709 46.46676,-0.90462 69.70407,-1.04452 15.81553,-0.13557 31.63186,-0.14453 47.44763,-0.18025 1.53783,0.0954 3.11238,-0.12932 4.61234,0.27708 1.21231,0.47811 3.21241,-0.5209 2.1875,-1.9375 -1.06715,-1.40599 -2.91368,-0.56904 -4.35546,-0.53974 -6.96845,0.27813 -13.94677,0.32138 -20.92087,0.39498 -8.32394,0.0437 -16.6489,-0.0499 -24.96815,-0.34111 -8.80179,-0.21596 -17.60623,-0.53471 -26.41177,-0.42038 z"
         style="fill:#733c00;fill-opacity:0.34552846;fill-rule:nonzero;stroke:none"
         inkscape:connector-curvature="0" />
      <path
         id="path3246"
         d="m 491.4375,235.34375 c -1.47455,0.36287 -0.92347,2.86699 0.5,2.84375 8.32058,-0.0163 16.64427,0.36405 24.96424,0.57784 31.48785,0.85298 62.97504,1.75647 94.4674,2.42216 13.16695,0.0203 26.28914,-1.4268 39.458,-1.3125 18.52146,0.0174 37.04121,0.31921 55.56242,0.3974 11.34726,0.13086 22.70599,0.0117 34.0401,0.64811 1.18038,0.41578 2.71952,-0.26578 2.82034,-1.60801 -0.002,-1.21615 -1.4471,-1.6515 -2.44875,-1.715 -1.34872,-0.0642 -2.69997,0.0543 -4.05222,2.5e-4 -17.15847,0.0454 -34.31897,0.0771 -51.47494,-0.26106 -9.11575,-0.14024 -18.23267,-0.2364 -27.34927,-0.2713 -9.09247,0.0588 -18.16689,0.68056 -27.24977,1.03966 -9.93169,0.47283 -19.87657,0.75406 -29.81942,0.53277 -8.77983,-0.13858 -17.55282,-0.53887 -26.33079,-0.75744 -27.11173,-0.86676 -54.22018,-1.85639 -81.33734,-2.53663 -0.58283,0.0101 -1.16921,-0.0851 -1.75,0 z"
         style="fill:#733c00;fill-opacity:0.34552846;fill-rule:nonzero;stroke:none"
         inkscape:connector-curvature="0" />
      <path
         id="path3244"
         d="m 489.03125,238 c 0.18496,0.2897 0.30961,-0.17824 0,0 z"
         style="fill:#733c00;fill-opacity:0.34552846;fill-rule:nonzero;stroke:none"
         inkscape:connector-curvature="0" />
      <path
         id="path3223"
         d="m 492.71875,243.375 c -1.28267,0.64978 0.47491,1.70131 1.3234,1.43694 1.39112,0.0479 2.78896,-0.0768 4.18343,0.004 10.75228,-0.031 21.50002,0.35645 32.2355,0.93191 13.30588,0.61888 26.60305,1.45632 39.92165,1.76563 17.3609,0.41648 34.7282,0.45017 52.09284,0.57635 11.58642,-0.0262 23.1725,-0.15667 34.75475,-0.47731 12.50825,-0.3252 25.01392,-0.73765 37.51968,-1.14363 7.27432,0.003 14.50995,0.84705 21.77281,1.13766 8.12487,0.46065 16.25437,0.82913 24.38344,1.20609 0.46649,-0.11304 -0.2162,-1.31754 -0.79349,-0.85918 -7.12648,-0.37984 -14.26495,-0.47136 -21.39272,-0.8117 -4.04129,-0.16557 -8.06118,-0.60665 -12.08744,-0.96562 -8.35135,-0.6181 -16.73223,-0.2169 -25.09491,-0.12337 -16.08219,0.28618 -32.16003,1.06897 -48.24834,0.79525 -12.95873,-0.0723 -25.91137,-0.51267 -38.86521,-0.84029 -24.29838,-0.68495 -48.59034,-1.57914 -72.88749,-2.30085 -7.69424,-0.18215 -15.39121,-0.33016 -23.08723,-0.34239 -1.90835,0.0266 -3.82984,6.5e-4 -5.73067,0.0106 z"
         style="fill:#733c00;fill-opacity:0.34552846;fill-rule:nonzero;stroke:none"
         inkscape:connector-curvature="0" />
      <path
         sodipodi:nodetypes="ccccccccccccccccccccc"
         inkscape:connector-curvature="0"
         style="fill:#733c00;fill-opacity:0.34552846;fill-rule:nonzero;stroke:none"
         d="m 491.86528,252.19858 c 0.88258,0.98509 2.18118,1.33683 3.55687,1.48522 6.00925,0.38024 10.46873,0.35256 16.45868,0.86313 0.75623,-0.90702 2.24568,1.07943 0.39149,0.95641 -4.32514,-0.008 -5.92555,-0.44629 -10.24607,-0.33223 -3.33462,0.0762 -6.66925,0.15251 -10.00387,0.22877 -0.9279,0.29558 -2.12471,1.64837 -1.11839,2.06824 17.70652,-0.0712 35.4132,0.0481 53.11964,6.3e-4 11.16938,-0.0318 22.33596,-0.22407 33.5046,-0.30962 31.87039,-0.34577 63.7387,-0.77646 95.60864,-1.14134 22.07642,-0.26405 44.15284,-0.52809 66.22927,-0.79213 1.26155,0.19838 3.08512,-0.15805 3.2049,-1.19776 -0.44121,-1.0458 -2.23659,-1.31573 -3.61338,-1.19777 -14.11545,0.32457 -28.23666,0.49177 -42.35727,0.66374 -16.12841,0.22035 -32.25714,0.42825 -48.38571,0.64291 -1.24219,-0.68692 -2.8581,-0.18843 -4.27322,-0.19599 -9.57346,-0.075 -19.14574,0.1168 -28.71852,0.17422 -24.26699,0.24518 -48.53369,0.50692 -72.80176,0.69688 -16.86244,-0.90014 -33.72488,-1.80028 -50.58733,-2.70042 l 0.0314,0.0871 z"
         id="path3258" />
      <path
         sodipodi:nodetypes="cccccccccccccccc"
         id="path3260"
         d="m 512.18767,263.45817 c -4.30165,-0.008 -8.59718,0.12747 -12.89422,0.23416 -3.31651,0.0713 -6.63302,0.14266 -9.94953,0.21399 -0.92286,0.27648 -2.11317,1.54185 -1.11231,1.93458 17.61032,-0.0666 35.22081,0.045 52.83106,5.9e-4 11.1087,-0.0297 22.21461,-0.20959 33.32257,-0.28962 31.69724,-0.32342 63.39242,-0.72627 95.08922,-1.06757 21.95649,-0.24699 43.91297,-0.49396 65.86946,-0.74094 1.25471,0.18556 3.06837,-0.14784 3.1875,-1.12036 -0.43882,-0.97822 -2.22444,-1.2307 -3.59375,-1.12037 -14.03877,0.3036 -28.08326,0.45999 -42.12716,0.62085 -16.04078,0.20611 -32.0819,0.40058 -48.12284,0.60137 -1.23544,-0.64254 -2.84258,-0.17626 -4.25,-0.18334 -9.52146,-0.0701 -19.04173,0.10926 -28.5625,0.16297 -24.13516,0.22934 -48.27003,0.47416 -72.40625,0.65184 -9.03675,-0.66351 -18.1974,0.38042 -27.28125,0.10185 z"
         style="fill:#733c00;fill-opacity:0.34552846;fill-rule:nonzero;stroke:none"
         inkscape:connector-curvature="0" />
    </g>
    <g
       style="fill:#371d00;fill-opacity:0.34552846"
       id="g4072"
       transform="matrix(1.0665273,0,0,1,-34.741261,-4)"
       clip-path="url(#clipPath3030)">
      <path
         inkscape:connector-curvature="0"
         style="fill:#371d00;fill-opacity:0.34552846;fill-rule:nonzero;stroke:none"
         d="m 507.34375,195.0625 c -0.80876,0.94732 0.15149,2.20624 1.0625,2.65625 5.05691,1.87448 10.5144,1.85275 15.82453,2.17497 8.96518,0.60946 17.95002,0.9126 26.93389,1.06202 12.8389,0.17273 25.67492,-0.27114 38.51185,-0.42654 8.94375,-0.16074 17.89066,-0.19464 26.83276,0.072 10.06646,0.29472 20.1378,0.56921 30.20947,0.46128 17.74986,-0.33644 35.509,-0.68814 53.25888,-0.16299 8.52921,0.2271 17.06215,0.37294 25.58487,0.78799 1.08363,0.22962 3.23465,0.93157 3.40625,-0.75 -0.15196,-1.52549 -1.9133,-1.51768 -3.02466,-1.22239 -6.82197,0.3784 -13.65586,0.0759 -20.48297,0.0701 -19.98914,-0.23665 -39.97927,-0.39046 -59.96869,-0.5982 -17.38214,-0.2268 -34.75964,-0.80712 -52.14375,-0.86241 -17.11069,0.11842 -34.21759,0.75151 -51.33004,0.57497 -7.11664,-0.1707 -14.24844,-0.30693 -21.32146,-1.18154 -4.16837,-0.45351 -8.29249,-1.32784 -12.25968,-2.68678 -0.33985,-0.005 -0.85803,-0.35921 -1.09375,0.0312 z"
         id="path4074" />
      <path
         inkscape:connector-curvature="0"
         style="fill:#371d00;fill-opacity:0.34552846;fill-rule:nonzero;stroke:none"
         d="m 492,203.21875 c -1.05743,0.84461 -0.19853,2.96496 1.1875,2.65625 12.26625,0.5539 24.52744,1.24992 36.80099,1.62272 7.77568,0.23868 15.5552,0.29695 23.33362,0.18409 15.63609,-0.16396 31.26862,-0.57079 46.90406,-0.78485 21.2862,-0.41283 42.57318,-0.78346 63.85954,-1.1877 14.36524,-0.23399 28.72991,-0.55555 43.0969,-0.64676 7.72137,-0.002 15.44051,0.20336 23.16114,0.28125 0.80447,0.66683 2.90553,0.6308 2.6875,-0.8125 -2.01649,-0.40695 -4.08588,-0.003 -6.11867,-0.27224 -11.83119,-0.4782 -23.66654,-1.07319 -35.51114,-0.91868 -24.65061,0.17021 -49.29753,0.65929 -73.94748,0.89647 -22.15115,0.21662 -44.30279,0.38837 -66.45396,0.60695 -9.62169,0.0146 -19.248,0.1435 -28.86294,-0.30529 -9.74178,-0.38636 -19.47743,-0.93756 -29.21225,-1.44471 -0.30725,0.0413 -0.66233,-0.10361 -0.92481,0.125 z"
         id="path4076" />
      <path
         inkscape:connector-curvature="0"
         style="fill:#371d00;fill-opacity:0.34552846;fill-rule:nonzero;stroke:none"
         d="m 740.9375,208.125 c -42.56872,0.8585 -85.13639,1.79402 -127.7095,2.41059 -35.60268,0.48967 -71.20711,0.85461 -106.80801,1.46886 -3.83791,0.061 -7.67583,0.12203 -11.51374,0.18305 -1.23332,-0.41245 -3.11748,0.18191 -3.15625,1.6875 0.39191,1.37043 2.0464,1.6848 3.28125,1.625 13.92593,-0.29898 27.85144,-0.64147 41.77896,-0.87365 28.03824,-0.50596 56.07722,-0.9712 84.11401,-1.5548 37.89498,-0.79161 75.78848,-1.6623 113.68309,-2.46488 1.70941,0.004 3.42548,-0.12627 5.12413,0.0808 0.99067,0.0395 2.62416,-0.4194 2.4583,-1.66734 -0.089,-0.56935 -0.66576,-1.07912 -1.25224,-0.89516 z"
         id="path4078" />
      <path
         inkscape:connector-curvature="0"
         style="fill:#371d00;fill-opacity:0.34552846;fill-rule:nonzero;stroke:none"
         d="m 735.90625,218.875 c -19.15226,0.45918 -38.31497,0.24543 -57.46492,0.83438 -15.88868,0.36031 -31.7686,1.08108 -47.66102,1.26947 -8.88269,0.12398 -17.76749,0.0254 -26.64445,-0.31981 -12.47476,-0.37122 -24.94272,-0.93792 -37.41916,-1.25766 -11.11872,-0.32528 -22.25838,-0.40669 -33.36128,0.37096 -13.02839,0.75466 -26.05276,1.57977 -39.07417,2.44641 -1.17431,-0.022 -2.73853,-0.37023 -3.53125,0.75 -0.63357,0.94517 0.30848,2.10812 1.28125,2.28125 1.35278,0.26567 2.69899,-0.20041 4.06923,-0.0985 20.27291,-0.45459 40.54473,-0.98768 60.81939,-1.37577 17.09209,-0.32685 34.18838,-0.39406 51.28322,-0.35526 17.08395,0.10142 34.16415,-0.37668 51.23531,-0.99254 17.68407,-0.63011 35.37281,-1.2043 53.06929,-1.29383 7.21606,-0.0748 14.43411,-0.0677 21.64856,0.11587 1.11574,0.2273 2.96057,0.44843 3.34375,-0.96875 0.18469,-0.81033 -0.83686,-1.59811 -1.59375,-1.40625 z"
         id="path4080" />
      <path
         inkscape:connector-curvature="0"
         style="fill:#371d00;fill-opacity:0.34552846;fill-rule:nonzero;stroke:none"
         d="m 659.875,226.84375 c -53.61458,1.45833 -107.22917,2.91667 -160.84375,4.375 -0.80349,-0.53843 -3.07619,-0.19053 -2.5,1.09375 0.87979,0.73276 2.22508,0.25098 3.29358,0.29869 1.4452,0.0386 2.8895,0.22975 4.34266,0.24767 7.83568,0.30388 15.67739,-0.006 23.51399,-0.12182 28.30009,-0.67447 56.59588,-1.52183 84.89823,-2.10185 23.23247,-0.47709 46.46676,-0.90462 69.70407,-1.04452 15.81553,-0.13557 31.63186,-0.14453 47.44763,-0.18025 1.53783,0.0954 3.11238,-0.12932 4.61234,0.27708 1.21231,0.47811 3.21241,-0.5209 2.1875,-1.9375 -1.06715,-1.40599 -2.91368,-0.56904 -4.35546,-0.53974 -6.96845,0.27813 -13.94677,0.32138 -20.92087,0.39498 -8.32394,0.0437 -16.6489,-0.0499 -24.96815,-0.34111 -8.80179,-0.21596 -17.60623,-0.53471 -26.41177,-0.42038 z"
         id="path4082" />
      <path
         inkscape:connector-curvature="0"
         style="fill:#371d00;fill-opacity:0.34552846;fill-rule:nonzero;stroke:none"
         d="m 491.4375,235.34375 c -1.47455,0.36287 -0.92347,2.86699 0.5,2.84375 8.32058,-0.0163 16.64427,0.36405 24.96424,0.57784 31.48785,0.85298 62.97504,1.75647 94.4674,2.42216 13.16695,0.0203 26.28914,-1.4268 39.458,-1.3125 18.52146,0.0174 37.04121,0.31921 55.56242,0.3974 11.34726,0.13086 22.70599,0.0117 34.0401,0.64811 1.18038,0.41578 2.71952,-0.26578 2.82034,-1.60801 -0.002,-1.21615 -1.4471,-1.6515 -2.44875,-1.715 -1.34872,-0.0642 -2.69997,0.0543 -4.05222,2.5e-4 -17.15847,0.0454 -34.31897,0.0771 -51.47494,-0.26106 -9.11575,-0.14024 -18.23267,-0.2364 -27.34927,-0.2713 -9.09247,0.0588 -18.16689,0.68056 -27.24977,1.03966 -9.93169,0.47283 -19.87657,0.75406 -29.81942,0.53277 -8.77983,-0.13858 -17.55282,-0.53887 -26.33079,-0.75744 -27.11173,-0.86676 -54.22018,-1.85639 -81.33734,-2.53663 -0.58283,0.0101 -1.16921,-0.0851 -1.75,0 z"
         id="path4084" />
      <path
         inkscape:connector-curvature="0"
         style="fill:#371d00;fill-opacity:0.34552846;fill-rule:nonzero;stroke:none"
         d="m 489.03125,238 c 0.18496,0.2897 0.30961,-0.17824 0,0 z"
         id="path4086" />
      <path
         inkscape:connector-curvature="0"
         style="fill:#371d00;fill-opacity:0.34552846;fill-rule:nonzero;stroke:none"
         d="m 492.71875,243.375 c -1.28267,0.64978 0.47491,1.70131 1.3234,1.43694 1.39112,0.0479 2.78896,-0.0768 4.18343,0.004 10.75228,-0.031 21.50002,0.35645 32.2355,0.93191 13.30588,0.61888 26.60305,1.45632 39.92165,1.76563 17.3609,0.41648 34.7282,0.45017 52.09284,0.57635 11.58642,-0.0262 23.1725,-0.15667 34.75475,-0.47731 12.50825,-0.3252 25.01392,-0.73765 37.51968,-1.14363 7.27432,0.003 14.50995,0.84705 21.77281,1.13766 8.12487,0.46065 16.25437,0.82913 24.38344,1.20609 0.46649,-0.11304 -0.2162,-1.31754 -0.79349,-0.85918 -7.12648,-0.37984 -14.26495,-0.47136 -21.39272,-0.8117 -4.04129,-0.16557 -8.06118,-0.60665 -12.08744,-0.96562 -8.35135,-0.6181 -16.73223,-0.2169 -25.09491,-0.12337 -16.08219,0.28618 -32.16003,1.06897 -48.24834,0.79525 -12.95873,-0.0723 -25.91137,-0.51267 -38.86521,-0.84029 -24.29838,-0.68495 -48.59034,-1.57914 -72.88749,-2.30085 -7.69424,-0.18215 -15.39121,-0.33016 -23.08723,-0.34239 -1.90835,0.0266 -3.82984,6.5e-4 -5.73067,0.0106 z"
         id="path4088" />
      <path
         id="path4090"
         d="m 491.86528,252.19858 c 0.88258,0.98509 2.18118,1.33683 3.55687,1.48522 6.00925,0.38024 10.46873,0.35256 16.45868,0.86313 0.75623,-0.90702 2.24568,1.07943 0.39149,0.95641 -4.32514,-0.008 -5.92555,-0.44629 -10.24607,-0.33223 -3.33462,0.0762 -6.66925,0.15251 -10.00387,0.22877 -0.9279,0.29558 -2.12471,1.64837 -1.11839,2.06824 17.70652,-0.0712 35.4132,0.0481 53.11964,6.3e-4 11.16938,-0.0318 22.33596,-0.22407 33.5046,-0.30962 31.87039,-0.34577 63.7387,-0.77646 95.60864,-1.14134 22.07642,-0.26405 44.15284,-0.52809 66.22927,-0.79213 1.26155,0.19838 3.08512,-0.15805 3.2049,-1.19776 -0.44121,-1.0458 -2.23659,-1.31573 -3.61338,-1.19777 -14.11545,0.32457 -28.23666,0.49177 -42.35727,0.66374 -16.12841,0.22035 -32.25714,0.42825 -48.38571,0.64291 -1.24219,-0.68692 -2.8581,-0.18843 -4.27322,-0.19599 -9.57346,-0.075 -19.14574,0.1168 -28.71852,0.17422 -24.26699,0.24518 -48.53369,0.50692 -72.80176,0.69688 -16.86244,-0.90014 -33.72488,-1.80028 -50.58733,-2.70042 l 0.0314,0.0871 z"
         style="fill:#371d00;fill-opacity:0.34552846;fill-rule:nonzero;stroke:none"
         inkscape:connector-curvature="0"
         sodipodi:nodetypes="ccccccccccccccccccccc" />
      <path
         inkscape:connector-curvature="0"
         style="fill:#371d00;fill-opacity:0.34552846;fill-rule:nonzero;stroke:none"
         d="m 512.18767,263.45817 c -4.30165,-0.008 -8.59718,0.12747 -12.89422,0.23416 -3.31651,0.0713 -6.63302,0.14266 -9.94953,0.21399 -0.92286,0.27648 -2.11317,1.54185 -1.11231,1.93458 17.61032,-0.0666 35.22081,0.045 52.83106,5.9e-4 11.1087,-0.0297 22.21461,-0.20959 33.32257,-0.28962 31.69724,-0.32342 63.39242,-0.72627 95.08922,-1.06757 21.95649,-0.24699 43.91297,-0.49396 65.86946,-0.74094 1.25471,0.18556 3.06837,-0.14784 3.1875,-1.12036 -0.43882,-0.97822 -2.22444,-1.2307 -3.59375,-1.12037 -14.03877,0.3036 -28.08326,0.45999 -42.12716,0.62085 -16.04078,0.20611 -32.0819,0.40058 -48.12284,0.60137 -1.23544,-0.64254 -2.84258,-0.17626 -4.25,-0.18334 -9.52146,-0.0701 -19.04173,0.10926 -28.5625,0.16297 -24.13516,0.22934 -48.27003,0.47416 -72.40625,0.65184 -9.03675,-0.66351 -18.1974,0.38042 -27.28125,0.10185 z"
         id="path4092"
         sodipodi:nodetypes="cccccccccccccccc" />
    </g>
  </g>
</svg>
