<?xml version="1.0" encoding="UTF-8" standalone="no"?>
<!-- Created with Inkscape (http://www.inkscape.org/) -->

<svg
   xmlns:dc="http://purl.org/dc/elements/1.1/"
   xmlns:cc="http://creativecommons.org/ns#"
   xmlns:rdf="http://www.w3.org/1999/02/22-rdf-syntax-ns#"
   xmlns:svg="http://www.w3.org/2000/svg"
   xmlns="http://www.w3.org/2000/svg"
   xmlns:sodipodi="http://sodipodi.sourceforge.net/DTD/sodipodi-0.dtd"
   xmlns:inkscape="http://www.inkscape.org/namespaces/inkscape"
   width="744.09448819"
   height="1052.3622047"
   id="svg4755"
   version="1.1"
   inkscape:version="0.48.2 r9819"
   sodipodi:docname="New document 21">
  <defs
     id="defs4757" />
  <sodipodi:namedview
     id="base"
     pagecolor="#ffffff"
     bordercolor="#666666"
     borderopacity="1.0"
     inkscape:pageopacity="0.0"
     inkscape:pageshadow="2"
     inkscape:zoom="0.98994949"
     inkscape:cx="171.64109"
     inkscape:cy="650.15847"
     inkscape:document-units="px"
     inkscape:current-layer="layer1"
     showgrid="false"
     inkscape:window-width="1618"
     inkscape:window-height="1028"
     inkscape:window-x="1672"
     inkscape:window-y="-8"
     inkscape:window-maximized="0" />
  <metadata
     id="metadata4760">
    <rdf:RDF>
      <cc:Work
         rdf:about="">
        <dc:format>image/svg+xml</dc:format>
        <dc:type
           rdf:resource="http://purl.org/dc/dcmitype/StillImage" />
        <dc:title></dc:title>
      </cc:Work>
    </rdf:RDF>
  </metadata>
  <g
     inkscape:label="Layer 1"
     inkscape:groupmode="layer"
     id="layer1">
    <path
       style="fill:#ffffff;fill-opacity:1;fill-rule:nonzero;stroke:#000000;stroke-width:5;stroke-miterlimit:4;stroke-opacity:1;stroke-dasharray:none"
       d="m 437.54727,179.89754 c -27.21296,12.51504 -37.02955,35.52099 -50.98477,59.62478 -12.35163,23.91491 -18.17077,37.36183 -27.09248,51.13279 -35.06013,16.27772 -50.19344,40.80336 -55.82492,30.75577 -5.60319,-31.4404 -23.61052,-65.43698 -54.73831,-77.33214 -36.54538,2.7296 11.27162,36.81003 10.50039,56.53676 16.86494,41.23171 3.65006,69.56685 9.29631,112.0181 6.60346,16.45404 -18.98865,33.01507 -32.11802,41.80169 -12.23682,10.50075 -24.47365,21.00151 -36.71047,31.50226 19.22917,22.39583 38.45833,44.79167 57.6875,67.1875 20.11607,-15.80804 49.32351,-49.79882 69.43958,-65.60686 46.59455,-3.97255 46.48457,-3.60407 91.65175,-27.35092 40.18014,-39.8332 133.47119,-44.97856 136.63897,-77.76412 2.81422,-29.12636 -68.62088,19.85249 -90.65284,23.49999 -3.54427,-6.17416 -2.24141,-5.12142 -5.43285,-13.60467 10.73713,-5.26896 50.21527,-30.30849 62.26522,-38.91229 12.82681,-11.56579 63.16325,-38.54387 40.74131,-56.19467 -48.19812,-3.29563 -79.43275,31.49382 -117.86989,57.90224 -2.12982,-3.30659 -2.46333,-4.18522 -5.21781,-10.09103 10.63004,-10.19896 33.48631,-40.57738 49.19925,-53.89114 19.62863,-23.10871 28.92387,-39.71802 38.88712,-69.41964 -4.89913,-37.66707 -25.28023,-19.80271 -38.0032,-6.11849 C 458.5056,246.2551 435.83815,283.42658 410.03125,318 c -8.93651,-5.96615 -4.69124,-0.90018 -12.30091,-9.13966 5.86803,-11.75774 23.43335,-42.9164 24.65578,-52.60689 9.1227,-20.11628 46.19576,-67.12117 15.16115,-76.35591 z"
       id="path4763"
       inkscape:connector-curvature="0"
       sodipodi:nodetypes="ccccccccccccsccccccccccccc" />
    <path
       style="fill:none;stroke:#000000;stroke-width:3;stroke-linecap:butt;stroke-linejoin:miter;stroke-miterlimit:4;stroke-opacity:1;stroke-dasharray:none"
       d="m 355,300.93361 c 0,0 0.94081,18.34466 5.71429,25.71429 5.22573,8.06784 25.91352,18.22932 34.35878,31.18782 10.00935,15.35846 17.37437,52.18002 17.37437,52.18002"
       id="path5328"
       inkscape:connector-curvature="0"
       sodipodi:nodetypes="csac" />
  </g>
</svg>
