<?xml version="1.0" encoding="UTF-8" standalone="no"?>
<!-- Created with Inkscape (http://www.inkscape.org/) -->

<svg
   xmlns:dc="http://purl.org/dc/elements/1.1/"
   xmlns:cc="http://creativecommons.org/ns#"
   xmlns:rdf="http://www.w3.org/1999/02/22-rdf-syntax-ns#"
   xmlns:svg="http://www.w3.org/2000/svg"
   xmlns="http://www.w3.org/2000/svg"
   xmlns:sodipodi="http://sodipodi.sourceforge.net/DTD/sodipodi-0.dtd"
   xmlns:inkscape="http://www.inkscape.org/namespaces/inkscape"
   width="744.09448819"
   height="1052.3622047"
   id="svg2"
   version="1.1"
   inkscape:version="0.48.2 r9819"
   sodipodi:docname="New document 1">
  <defs
     id="defs4" />
  <sodipodi:namedview
     id="base"
     pagecolor="#ffffff"
     bordercolor="#666666"
     borderopacity="1.0"
     inkscape:pageopacity="0.0"
     inkscape:pageshadow="2"
     inkscape:zoom="0.49497475"
     inkscape:cx="719.42841"
     inkscape:cy="389.72664"
     inkscape:document-units="px"
     inkscape:current-layer="layer1"
     showgrid="false"
     inkscape:window-width="1366"
     inkscape:window-height="716"
     inkscape:window-x="-8"
     inkscape:window-y="-8"
     inkscape:window-maximized="1" />
  <metadata
     id="metadata7">
    <rdf:RDF>
      <cc:Work
         rdf:about="">
        <dc:format>image/svg+xml</dc:format>
        <dc:type
           rdf:resource="http://purl.org/dc/dcmitype/StillImage" />
        <dc:title></dc:title>
      </cc:Work>
    </rdf:RDF>
  </metadata>
  <g
     inkscape:label="Layer 1"
     inkscape:groupmode="layer"
     id="layer1">
    <path
       style="fill:#3771c8;fill-opacity:1;stroke:#000000;stroke-width:10.2910347;stroke-linecap:round;stroke-linejoin:round;stroke-miterlimit:4;stroke-opacity:1"
       d="M 317.625 157.6875 C 187.24629 156.35188 171.89929 270.68459 171.46875 341.21875 C 171.38857 354.35514 171.22738 390.13023 171.0625 424.46875 C 149.89375 444.5095 122.99071 486.9168 100.1875 538.96875 C 65.936198 617.15279 53.925494 687.39939 73.34375 695.90625 C 92.735442 704.40147 136.14532 648.08021 170.375 570.0625 C 169.72668 713.12662 169.0625 865.9375 169.0625 865.9375 L 266.875 865.9375 L 316.21875 674 L 369.5625 865.9375 L 463.34375 865.9375 C 463.34375 865.9375 462.53818 723.61785 462.3125 575.53125 C 495.89834 649.13282 536.87651 701.15481 555.5625 692.96875 C 574.98076 684.46189 562.97005 614.18404 528.71875 536 C 507.50924 487.58592 482.73423 447.52464 462.34375 426.03125 C 462.42104 396.74825 462.55679 369.19471 462.75 345.125 C 464.14835 170.91908 397.35494 161.29009 317.625 157.6875 z "
       id="path3758" />
    <path
       style="fill:#ffffff;fill-opacity:1;stroke:#000000;stroke-width:11.07189751;stroke-linecap:round;stroke-linejoin:round;stroke-miterlimit:4;stroke-opacity:1"
       d="m 416.32332,291.21225 c 0,30.963 -51.9101,65.6264 -99.06519,37.88072 -54.71218,-32.1922 -99.06519,-8.29369 -99.06519,-37.88072 0,-30.96299 44.35301,-56.06346 99.06519,-56.06346 54.7122,0 99.06519,25.10047 99.06519,56.06346 z"
       id="path3765"
       inkscape:connector-curvature="0"
       sodipodi:nodetypes="sssss" />
    <path
       style="fill:none;stroke:#000000;stroke-width:10;stroke-linecap:butt;stroke-linejoin:miter;stroke-miterlimit:4;stroke-opacity:1;stroke-dasharray:none"
       d="m 345.97723,381.11581 -65.15483,67.68023 64.14469,59.599 -62.62946,60.60915 63.63961,61.11423 -29.7995,43.94164"
       id="path3767"
       inkscape:connector-curvature="0"
       sodipodi:nodetypes="cccccc" />
    <path
       sodipodi:type="arc"
       style="fill:#000000;fill-opacity:1;stroke:#000000;stroke-width:10;stroke-linecap:round;stroke-linejoin:round;stroke-miterlimit:4;stroke-opacity:1;stroke-dasharray:none"
       id="path3769"
       sodipodi:cx="758.62457"
       sodipodi:cy="423.03714"
       sodipodi:rx="13.131983"
       sodipodi:ry="13.131983"
       d="m 771.75656,423.03714 a 13.131983,13.131983 0 1 1 -26.26397,0 13.131983,13.131983 0 1 1 26.26397,0 z"
       transform="translate(-446.48743,-127.27922)" />
  </g>
</svg>
