<?xml version="1.0" encoding="UTF-8" standalone="no"?>
<!-- Created with Inkscape (http://www.inkscape.org/) -->

<svg
   xmlns:dc="http://purl.org/dc/elements/1.1/"
   xmlns:cc="http://creativecommons.org/ns#"
   xmlns:rdf="http://www.w3.org/1999/02/22-rdf-syntax-ns#"
   xmlns:svg="http://www.w3.org/2000/svg"
   xmlns="http://www.w3.org/2000/svg"
   xmlns:sodipodi="http://sodipodi.sourceforge.net/DTD/sodipodi-0.dtd"
   xmlns:inkscape="http://www.inkscape.org/namespaces/inkscape"
   width="744.09448819"
   height="1052.3622047"
   id="svg4759"
   version="1.1"
   inkscape:version="0.48.2 r9819"
   sodipodi:docname="school stuff.svg">
  <defs
     id="defs4761" />
  <sodipodi:namedview
     id="base"
     pagecolor="#ffffff"
     bordercolor="#666666"
     borderopacity="1.0"
     inkscape:pageopacity="0.0"
     inkscape:pageshadow="2"
     inkscape:zoom="0.35"
     inkscape:cx="434.16735"
     inkscape:cy="367.22869"
     inkscape:document-units="px"
     inkscape:current-layer="layer1"
     showgrid="false"
     inkscape:window-width="1366"
     inkscape:window-height="706"
     inkscape:window-x="-8"
     inkscape:window-y="-8"
     inkscape:window-maximized="1" />
  <metadata
     id="metadata4764">
    <rdf:RDF>
      <cc:Work
         rdf:about="">
        <dc:format>image/svg+xml</dc:format>
        <dc:type
           rdf:resource="http://purl.org/dc/dcmitype/StillImage" />
        <dc:title />
      </cc:Work>
    </rdf:RDF>
  </metadata>
  <g
     inkscape:groupmode="layer"
     id="layer5"
     inkscape:label="Compartment" />
  <g
     inkscape:label="Frame"
     inkscape:groupmode="layer"
     id="layer1">
    <g
       id="g3001"
       transform="translate(82.832508,66.670068)">
      <path
         sodipodi:nodetypes="ccccc"
         inkscape:connector-curvature="0"
         id="rect4774"
         d="m 225.71428,586.64789 311.42856,0 0,114.28572 -199.99999,0 z"
         style="fill:#535353;fill-opacity:1;stroke:none" />
      <rect
         y="543.79077"
         x="160"
         height="25.714285"
         width="402.85715"
         id="rect4767"
         style="fill:#008080;fill-opacity:1;stroke:none" />
      <rect
         y="569.14789"
         x="474.28571"
         height="337.5"
         width="25.714285"
         id="rect4769"
         style="fill:#235823;fill-opacity:1;stroke:none" />
      <rect
         y="906.64789"
         x="217.14285"
         height="34.285713"
         width="320"
         id="rect4771"
         style="fill:#235823;fill-opacity:1;stroke:none" />
    </g>
    <g
       id="g3869"
       transform="translate(114.28571,-120)">
      <rect
         y="308.07645"
         x="-995.71429"
         height="448.57144"
         width="771.42859"
         id="rect3007"
         style="fill:#254422;fill-opacity:1;stroke:#64331c;stroke-width:20;stroke-miterlimit:4;stroke-opacity:1;stroke-dasharray:none" />
      <rect
         y="732.82764"
         x="-1004.8568"
         height="443.0036"
         width="18.03483"
         id="rect3777"
         style="fill:#64331c;fill-opacity:1;stroke:none" />
      <rect
         y="735.14606"
         x="-233.30313"
         height="443.0036"
         width="18.03483"
         id="rect3777-1"
         style="fill:#64331c;fill-opacity:1;stroke:none" />
      <path
         inkscape:connector-curvature="0"
         id="path3839"
         d="m -940,353.79075 c 0,23.33334 0,46.66667 0,70"
         style="fill:none;stroke:#000000;stroke-width:3;stroke-linecap:butt;stroke-linejoin:miter;stroke-miterlimit:4;stroke-opacity:1;stroke-dasharray:none" />
      <path
         inkscape:connector-curvature="0"
         id="path3841"
         d="m -940,393.79075 c 11.5668,2.87643 26.97945,3.12248 37.14286,1.42858"
         style="fill:none;stroke:#000000;stroke-width:3;stroke-linecap:butt;stroke-linejoin:miter;stroke-miterlimit:4;stroke-opacity:1;stroke-dasharray:none" />
      <path
         inkscape:connector-curvature="0"
         id="path3843"
         d="m -905.71429,355.21933 c 2.73294,21.2528 7.98735,47.33996 10,61.42857"
         style="fill:none;stroke:#000000;stroke-width:3;stroke-linecap:butt;stroke-linejoin:miter;stroke-miterlimit:4;stroke-opacity:1;stroke-dasharray:none" />
      <path
         inkscape:connector-curvature="0"
         id="path3845"
         d="m -817.14286,395.21933 c -10.39991,-4.61622 -36.11561,-14.79934 -48.57143,-8.57143 -33.73404,16.86702 -15.39124,68.79253 21.42858,61.42857 45.60549,-9.1211 26.19503,-52.69917 18.57142,-51.42857"
         style="fill:none;stroke:#000000;stroke-width:3;stroke-linecap:butt;stroke-linejoin:miter;stroke-miterlimit:4;stroke-opacity:1;stroke-dasharray:none" />
      <path
         inkscape:connector-curvature="0"
         id="path3847"
         d="m -755.71429,362.36218 c -3.40733,17.70657 -5.71428,35.68068 -5.71428,54.28572"
         style="fill:none;stroke:#000000;stroke-width:3;stroke-linecap:butt;stroke-linejoin:miter;stroke-miterlimit:4;stroke-opacity:1;stroke-dasharray:none" />
      <path
         inkscape:connector-curvature="0"
         id="path3849"
         d="m -764.28571,435.21933 c 0,7.14285 0,14.28571 0,21.42857"
         style="fill:none;stroke:#000000;stroke-width:3;stroke-linecap:butt;stroke-linejoin:miter;stroke-miterlimit:4;stroke-opacity:1;stroke-dasharray:none" />
      <path
         inkscape:connector-curvature="0"
         id="path3851"
         d="m -687.14286,423.79075 c 10.53734,0.72039 20.99416,4.53426 31.42857,7.14286 44.71717,11.17929 -51.72177,31.42857 17.14286,31.42857 11.84178,0 23.72392,1.42857 35.71429,1.42857"
         style="fill:none;stroke:#000000;stroke-width:3;stroke-linecap:butt;stroke-linejoin:miter;stroke-miterlimit:4;stroke-opacity:1;stroke-dasharray:none" />
      <path
         inkscape:connector-curvature="0"
         id="path3853"
         d="m -545.71429,440.93361 c -20.75422,-2.54686 -24.70442,23.36208 -8.57142,31.42857 17.05638,8.52819 23.49594,-32.85714 25.71428,-32.85714 2.66181,0 6.68506,25.82464 7.14286,28.57143"
         style="fill:none;stroke:#000000;stroke-width:3;stroke-linecap:butt;stroke-linejoin:miter;stroke-miterlimit:4;stroke-opacity:1;stroke-dasharray:none" />
      <path
         inkscape:connector-curvature="0"
         id="path3857"
         d="m -500,442.36218 c -0.69214,58.12003 0.82522,6.01597 21.42857,-4.28571 11.93274,-5.96637 13.10341,31.67483 15.71429,34.28571 1.18142,1.18143 11.02245,-27.39847 32.85714,-32.85714 15.2488,-3.8122 20,26.82599 20,38.57143"
         style="fill:none;stroke:#000000;stroke-width:3;stroke-linecap:butt;stroke-linejoin:miter;stroke-miterlimit:4;stroke-opacity:1;stroke-dasharray:none" />
      <path
         inkscape:connector-curvature="0"
         id="path3859"
         d="m -382.85714,445.21933 c -3.00527,80.41668 10.15571,-18.33787 27.14285,7.14285 5.12873,7.6931 5.71429,36.38881 5.71429,27.14286 0,-54.23933 19.73788,-31.38924 34.28571,-7.14286"
         style="fill:none;stroke:#000000;stroke-width:3;stroke-linecap:butt;stroke-linejoin:miter;stroke-miterlimit:4;stroke-opacity:1;stroke-dasharray:none" />
      <path
         inkscape:connector-curvature="0"
         id="path3861"
         d="m -265.71429,449.50504 c -17.95867,-2.22934 -37.38444,18.32984 -24.28571,31.42857 25.62097,25.62097 37.14286,-32.51404 37.14286,-27.14286 0,14.76191 0,29.52381 0,44.28572"
         style="fill:none;stroke:#000000;stroke-width:3;stroke-linecap:butt;stroke-linejoin:miter;stroke-miterlimit:4;stroke-opacity:1;stroke-dasharray:none" />
      <path
         inkscape:connector-curvature="0"
         id="path3863"
         d="m -560,395.21933 c 1.5354,-0.7514 13.01307,-5.55837 15.71429,-2.85715 26.1581,26.15811 -44.80889,-1.99196 -7.14286,4.28572"
         style="fill:none;stroke:#000000;stroke-width:3;stroke-linecap:butt;stroke-linejoin:miter;stroke-miterlimit:4;stroke-opacity:1;stroke-dasharray:none" />
      <path
         inkscape:connector-curvature="0"
         id="path3865"
         d="m -532.85714,405.21933 c 23.3128,-18.04233 11.42857,45.68173 11.42857,1.42857"
         style="fill:none;stroke:#000000;stroke-width:3;stroke-linecap:butt;stroke-linejoin:miter;stroke-miterlimit:4;stroke-opacity:1;stroke-dasharray:none" />
      <path
         inkscape:connector-curvature="0"
         id="path3867"
         d="m -645.71429,592.36218 c 19.8571,-39.08578 -40.10359,-105.20356 -81.42857,-91.42857 -48.51234,16.17078 32.9826,91.55403 41.42857,100 5.03463,5.03462 16.78796,56.60602 21.42858,54.28572 18.93806,-9.46904 120.62373,-110.80485 90,-141.42858 -3.43695,-3.43694 -18.32074,-1.42857 -22.85715,-1.42857 -34.8588,0 -51.34256,75.38145 -40,94.28572"
         style="fill:none;stroke:#000000;stroke-width:0;stroke-linecap:butt;stroke-linejoin:miter;stroke-miterlimit:4;stroke-opacity:1;stroke-dasharray:none" />
    </g>
    <g
       id="g4051"
       transform="translate(-160,-11.428571)">
      <rect
         y="80.933609"
         x="937.14288"
         height="982.85712"
         width="548.57141"
         id="rect3888"
         style="fill:#462414;fill-opacity:1;stroke:#9b4e2b;stroke-width:20;stroke-miterlimit:4;stroke-opacity:1;stroke-dasharray:none" />
      <path
         inkscape:connector-curvature="0"
         id="path3890"
         d="m 1489.7143,196.6479 -560.00001,-2.85715 0,0"
         style="fill:none;stroke:#9b4e2b;stroke-width:20;stroke-linecap:butt;stroke-linejoin:miter;stroke-miterlimit:4;stroke-opacity:1;stroke-dasharray:none" />
      <path
         inkscape:connector-curvature="0"
         id="path3890-7"
         d="m 1492.8571,415.21933 -559.99997,-2.85715 0,0"
         style="fill:none;stroke:#9b4e2b;stroke-width:20;stroke-linecap:butt;stroke-linejoin:miter;stroke-miterlimit:4;stroke-opacity:1;stroke-dasharray:none" />
      <path
         inkscape:connector-curvature="0"
         id="path3890-4"
         d="m 1487.1428,593.79076 -559.99999,-2.85715 0,0"
         style="fill:none;stroke:#9b4e2b;stroke-width:20;stroke-linecap:butt;stroke-linejoin:miter;stroke-miterlimit:4;stroke-opacity:1;stroke-dasharray:none" />
      <path
         inkscape:connector-curvature="0"
         id="path3890-0"
         d="m 1488.5715,790.93361 -560.00008,-2.85715 0,0"
         style="fill:none;stroke:#9b4e2b;stroke-width:20;stroke-linecap:butt;stroke-linejoin:miter;stroke-miterlimit:4;stroke-opacity:1;stroke-dasharray:none" />
      <rect
         y="270.93362"
         x="962.85712"
         height="128.57143"
         width="54.285713"
         id="rect3924"
         style="fill:#141d46;fill-opacity:1;stroke:none" />
      <rect
         y="229.50504"
         x="1028.5714"
         height="172.85715"
         width="60"
         id="rect3926"
         style="fill:#800000;fill-opacity:1;stroke:none" />
      <rect
         y="245.21933"
         x="1110"
         height="155.71428"
         width="61.42857"
         id="rect3928"
         style="fill:#aa4400;fill-opacity:1;stroke:none" />
      <rect
         y="248.07646"
         x="1214.2858"
         height="155.71428"
         width="35.714287"
         id="rect3930"
         style="fill:#008000;fill-opacity:1;stroke:none" />
      <rect
         y="240.93361"
         x="1265.7142"
         height="161.42857"
         width="65.714287"
         id="rect3932"
         style="fill:#808000;fill-opacity:1;stroke:none" />
      <rect
         y="256.64789"
         x="1357.1428"
         height="147.14285"
         width="20"
         id="rect3934"
         style="fill:#141d46;fill-opacity:1;stroke:none" />
      <rect
         y="270.93362"
         x="1397.1428"
         height="134.28572"
         width="42.857143"
         id="rect3936"
         style="fill:#5599ff;fill-opacity:1;stroke:none" />
      <rect
         transform="scale(-1,1)"
         y="921.64789"
         x="-1450.0001"
         height="128.57143"
         width="54.285713"
         id="rect3924-9"
         style="fill:#141d46;fill-opacity:1;stroke:none" />
      <rect
         transform="scale(-1,1)"
         y="880.2193"
         x="-1384.2858"
         height="172.85715"
         width="60"
         id="rect3926-4"
         style="fill:#800000;fill-opacity:1;stroke:none" />
      <rect
         transform="scale(-1,1)"
         y="895.93359"
         x="-1302.8572"
         height="155.71428"
         width="61.42857"
         id="rect3928-8"
         style="fill:#aa4400;fill-opacity:1;stroke:none" />
      <rect
         transform="scale(-1,1)"
         y="898.79071"
         x="-1198.5713"
         height="155.71428"
         width="35.714287"
         id="rect3930-8"
         style="fill:#008000;fill-opacity:1;stroke:none" />
      <rect
         transform="scale(-1,1)"
         y="891.64789"
         x="-1147.1428"
         height="161.42857"
         width="65.714287"
         id="rect3932-2"
         style="fill:#808000;fill-opacity:1;stroke:none" />
      <rect
         transform="scale(-1,1)"
         y="907.36218"
         x="-1055.7142"
         height="147.14285"
         width="20"
         id="rect3934-4"
         style="fill:#141d46;fill-opacity:1;stroke:none" />
      <rect
         transform="scale(-1,1)"
         y="921.64789"
         x="-1015.7142"
         height="134.28572"
         width="42.857143"
         id="rect3936-5"
         style="fill:#5599ff;fill-opacity:1;stroke:none" />
      <rect
         y="433.79074"
         x="971.42859"
         height="148.57143"
         width="44.285713"
         id="rect3991"
         style="fill:#5599ff;fill-opacity:1;stroke:none" />
      <rect
         y="453.79074"
         x="1051.4286"
         height="128.57143"
         width="64.285713"
         id="rect3993"
         style="fill:#6c5353;fill-opacity:1;stroke:none" />
      <rect
         y="430.93362"
         x="1144.2858"
         height="148.57143"
         width="8.5714283"
         id="rect3995"
         style="fill:#0000ff;fill-opacity:1;stroke:none" />
      <rect
         y="456.64789"
         x="1195.7142"
         height="124.28571"
         width="50"
         id="rect3997"
         style="fill:#d40000;fill-opacity:1;stroke:none" />
      <rect
         y="466.64789"
         x="1257.1428"
         height="115.71429"
         width="30"
         id="rect3999"
         style="fill:#ff9955;fill-opacity:1;stroke:none" />
      <rect
         y="426.64789"
         x="1310"
         height="155.71428"
         width="28.571428"
         id="rect4001"
         style="fill:#aad400;fill-opacity:1;stroke:none" />
      <rect
         y="469.50504"
         x="1345.7142"
         height="112.85714"
         width="51.42857"
         id="rect4003"
         style="fill:#008000;fill-opacity:1;stroke:none" />
      <rect
         y="443.79074"
         x="1422.8572"
         height="137.14285"
         width="11.428572"
         id="rect4005"
         style="fill:#5599ff;fill-opacity:1;stroke:none" />
      <rect
         y="450.93362"
         x="1454.2858"
         height="131.42857"
         width="18.571428"
         id="rect4007"
         style="fill:#6600ff;fill-opacity:1;stroke:none" />
      <rect
         transform="scale(-1,1)"
         y="628.79071"
         x="-1456.4286"
         height="148.57143"
         width="44.285713"
         id="rect3991-5"
         style="fill:#5599ff;fill-opacity:1;stroke:none" />
      <rect
         transform="scale(-1,1)"
         y="648.79071"
         x="-1376.4286"
         height="128.57143"
         width="64.285713"
         id="rect3993-1"
         style="fill:#6c5353;fill-opacity:1;stroke:none" />
      <rect
         transform="scale(-1,1)"
         y="625.93359"
         x="-1283.5714"
         height="148.57143"
         width="8.5714283"
         id="rect3995-7"
         style="fill:#0000ff;fill-opacity:1;stroke:none" />
      <rect
         transform="scale(-1,1)"
         y="651.64789"
         x="-1232.1429"
         height="124.28571"
         width="50"
         id="rect3997-1"
         style="fill:#d40000;fill-opacity:1;stroke:none" />
      <rect
         transform="scale(-1,1)"
         y="661.64789"
         x="-1170.7144"
         height="115.71429"
         width="30"
         id="rect3999-1"
         style="fill:#ff9955;fill-opacity:1;stroke:none" />
      <rect
         transform="scale(-1,1)"
         y="621.64789"
         x="-1117.8572"
         height="155.71428"
         width="28.571428"
         id="rect4001-5"
         style="fill:#aad400;fill-opacity:1;stroke:none" />
      <rect
         transform="scale(-1,1)"
         y="664.505"
         x="-1082.1429"
         height="112.85714"
         width="51.42857"
         id="rect4003-2"
         style="fill:#008000;fill-opacity:1;stroke:none" />
      <rect
         transform="scale(-1,1)"
         y="638.79071"
         x="-1005"
         height="137.14285"
         width="11.428572"
         id="rect4005-7"
         style="fill:#5599ff;fill-opacity:1;stroke:none" />
      <rect
         transform="scale(-1,1)"
         y="645.93359"
         x="-973.57141"
         height="131.42857"
         width="18.571428"
         id="rect4007-6"
         style="fill:#6600ff;fill-opacity:1;stroke:none" />
    </g>
  </g>
  <g
     inkscape:groupmode="layer"
     id="layer7"
     inkscape:label="ChairBottom" />
  <g
     inkscape:groupmode="layer"
     id="layer6"
     inkscape:label="ChairTop">
    <g
       id="g5338"
       transform="matrix(0.95982237,0,0,0.95982237,282.60552,108.661)">
      <g
         id="g2994">
        <g
           style="fill:#6e7e91;fill-opacity:1"
           id="g5331">
          <rect
             y="679.50507"
             x="-133.57143"
             height="234.28572"
             width="11.428572"
             id="rect5307"
             style="fill:#6e7e91;fill-opacity:1;stroke:none" />
          <path
             sodipodi:nodetypes="cccccccccc"
             inkscape:connector-curvature="0"
             id="rect5328"
             d="m -239.28571,922.37707 105.35969,-8.5863 11.71935,0 104.349538,8.5863 0,9.98513 -18.928573,0 -92.500005,-7.85714 -91.07143,7.85714 -18.92857,0 z"
             style="fill:#6e7e91;fill-opacity:1;stroke:none" />
        </g>
        <path
           style="fill:#535353;fill-opacity:1;stroke:none"
           d="m -160.87289,538.87417 c -11.42857,51.5809 -37.55957,106.46262 -22.44431,127.09655 15.80737,21.57874 51.13566,0.0342 113.604718,-6.36711 62.4690497,-6.40128 117.206784,22.24512 115.268174,27.1277 -1.93862,4.88257 -78.172945,-9.09813 -112.068094,-13.56291 -33.895148,-4.46479 -127.203088,38.84426 -139.756548,11.32662 -14.75516,-32.34386 19.68178,-95.46853 29.68178,-145.62085 10,-50.15233 -4.32558,-156.01556 13.57143,-156.42857 29.44225,-0.67945 13.57142,104.84767 2.14285,156.42857 z"
           id="path5285"
           inkscape:connector-curvature="0"
           sodipodi:nodetypes="zszzzszsz" />
      </g>
    </g>
  </g>
</svg>
