<?xml version="1.0" encoding="UTF-8" standalone="no"?>
<!-- Created with Inkscape (http://www.inkscape.org/) -->

<svg
   xmlns:dc="http://purl.org/dc/elements/1.1/"
   xmlns:cc="http://creativecommons.org/ns#"
   xmlns:rdf="http://www.w3.org/1999/02/22-rdf-syntax-ns#"
   xmlns:svg="http://www.w3.org/2000/svg"
   xmlns="http://www.w3.org/2000/svg"
   xmlns:xlink="http://www.w3.org/1999/xlink"
   xmlns:sodipodi="http://sodipodi.sourceforge.net/DTD/sodipodi-0.dtd"
   xmlns:inkscape="http://www.inkscape.org/namespaces/inkscape"
   width="744.09448819"
   height="1052.3622047"
   id="svg3058"
   version="1.1"
   inkscape:version="0.48.2 r9819"
   sodipodi:docname="New document 1">
  <defs
     id="defs3060" />
  <sodipodi:namedview
     id="base"
     pagecolor="#ffffff"
     bordercolor="#666666"
     borderopacity="1.0"
     inkscape:pageopacity="0.0"
     inkscape:pageshadow="2"
     inkscape:zoom="1.979899"
     inkscape:cx="313.25936"
     inkscape:cy="618.65699"
     inkscape:document-units="px"
     inkscape:current-layer="layer3"
     showgrid="false"
     inkscape:window-width="1618"
     inkscape:window-height="1028"
     inkscape:window-x="1672"
     inkscape:window-y="-8"
     inkscape:window-maximized="1" />
  <metadata
     id="metadata3063">
    <rdf:RDF>
      <cc:Work
         rdf:about="">
        <dc:format>image/svg+xml</dc:format>
        <dc:type
           rdf:resource="http://purl.org/dc/dcmitype/StillImage" />
        <dc:title></dc:title>
      </cc:Work>
    </rdf:RDF>
  </metadata>
  <g
     inkscape:groupmode="layer"
     id="layer3"
     inkscape:label="BackButtons">
    <path
       style="fill:#cccccc;fill-opacity:1;fill-rule:nonzero;stroke:#000000;stroke-width:5;stroke-linecap:butt;stroke-linejoin:round;stroke-miterlimit:4;stroke-opacity:1"
       d="m 208.39285,426.82648 c 12.25534,-1.32466 74.82144,-0.89286 74.82144,-0.89286 l 0,32.5 -113.03572,-8.92857 c 0,0 3.14875,-10.92816 12.67857,-15.53572 9.52982,-4.60755 13.28037,-5.81819 25.53571,-7.14285 z"
       id="rect4022"
       inkscape:connector-curvature="0"
       sodipodi:nodetypes="zccczz" />
    <path
       style="fill:#cccccc;fill-opacity:1;fill-rule:nonzero;stroke:#000000;stroke-width:5;stroke-linecap:butt;stroke-linejoin:round;stroke-miterlimit:4;stroke-opacity:1"
       d="M 538.30358,427.03866 C 526.04824,425.714 463.48214,426.1458 463.48214,426.1458 l 0,32.5 113.03572,-8.92857 c 0,0 -3.14875,-10.92816 -12.67857,-15.53572 -9.52982,-4.60755 -13.28037,-5.81819 -25.53571,-7.14285 z"
       id="rect4022-4"
       inkscape:connector-curvature="0"
       sodipodi:nodetypes="zccczz" />
  </g>
  <g
     inkscape:label="Layer 1"
     inkscape:groupmode="layer"
     id="layer1">
    <path
       style="fill:#bdbec3;fill-opacity:1;fill-rule:nonzero;stroke:#000000;stroke-width:5;stroke-miterlimit:4;stroke-opacity:1;stroke-dasharray:none"
       d="M 228.21875 433.78125 C 171.60957 433.78125 125.71875 479.67207 125.71875 536.28125 C 125.71875 592.89043 171.60957 638.78125 228.21875 638.78125 C 254.92167 638.78125 279.22729 628.57417 297.46875 611.84375 L 448.25 611.84375 C 466.49146 628.57417 490.79708 638.78125 517.5 638.78125 C 574.10918 638.78125 620 592.89043 620 536.28125 C 620 479.67207 574.10918 433.78125 517.5 433.78125 C 513.42911 433.78125 509.4157 434.03844 505.46875 434.5 L 240.25 434.5 C 236.30305 434.03844 232.28964 433.78125 228.21875 433.78125 z "
       id="path3077" />
    <path
       sodipodi:type="arc"
       style="fill:#666666;fill-opacity:1;fill-rule:nonzero;stroke:#000000;stroke-width:5;stroke-linecap:butt;stroke-linejoin:round;stroke-miterlimit:4;stroke-opacity:1;stroke-dasharray:none"
       id="path3898"
       sodipodi:cx="544.64288"
       sodipodi:cy="543.43359"
       sodipodi:rx="81.071426"
       sodipodi:ry="81.071426"
       d="m 625.71431,543.43359 a 81.071426,81.071426 0 1 1 -162.14285,0 81.071426,81.071426 0 1 1 162.14285,0 z"
       transform="matrix(1.1196582,0,0,1.1196582,-92.313809,-71.454816)" />
    <path
       transform="matrix(0.78936391,-0.61392558,0.61392558,0.78936391,0,0)"
       style="fill:#b3b3b3;fill-opacity:1;fill-rule:nonzero;stroke:none"
       d="m 41.016363,694.63698 72.120297,1.24607 c 0,0 16.93452,3.49085 17.36101,19.85836 0.42649,16.36751 -15.62259,22.70942 -15.62259,22.70942 l -77.844648,-0.72129 c 0,0 -15.908948,-4.73546 -15.845792,-22.7519 0.06316,-18.01643 19.831723,-20.34066 19.831723,-20.34066 z"
       id="rect3900"
       inkscape:connector-curvature="0"
       sodipodi:nodetypes="cczcczc" />
    <path
       style="fill:#b3b3b3;fill-opacity:1;fill-rule:nonzero;stroke:none"
       d="m 504.70337,559.85885 57.69415,-43.29289 c 0,0 15.51062,-7.64098 25.89571,5.01711 10.38509,12.65808 1.60999,27.5171 1.60999,27.5171 l -61.89058,47.22146 c 0,0 -15.46517,6.02891 -26.47607,-8.23139 -11.01089,-14.2603 3.1668,-28.23139 3.1668,-28.23139 z"
       id="rect3900-4"
       inkscape:connector-curvature="0"
       sodipodi:nodetypes="cczcczc" />
    <path
       sodipodi:type="arc"
       style="fill:#0000ff;fill-opacity:1;fill-rule:nonzero;stroke:#000000;stroke-opacity:1"
       id="path3923"
       sodipodi:cx="522.85712"
       sodipodi:cy="498.16574"
       sodipodi:rx="10.357142"
       sodipodi:ry="10.446428"
       d="m 533.21426,498.16574 a 10.357142,10.446428 0 1 1 -20.71429,0 10.357142,10.446428 0 1 1 20.71429,0 z"
       transform="matrix(1.725938,0,0,1.725938,-378.10883,-358.33389)" />
    <path
       sodipodi:type="arc"
       style="fill:#008000;fill-opacity:1;fill-rule:nonzero;stroke:#000000;stroke-opacity:1"
       id="path3923-0"
       sodipodi:cx="522.85712"
       sodipodi:cy="498.16574"
       sodipodi:rx="10.357142"
       sodipodi:ry="10.446428"
       d="m 533.21426,498.16574 a 10.357142,10.446428 0 1 1 -20.71429,0 10.357142,10.446428 0 1 1 20.71429,0 z"
       transform="matrix(1.725938,0,0,1.725938,-427.06183,-321.72671)" />
    <path
       sodipodi:type="arc"
       style="fill:#ffff00;fill-opacity:1;fill-rule:nonzero;stroke:#000000;stroke-opacity:1"
       id="path3923-9"
       sodipodi:cx="522.85712"
       sodipodi:cy="498.16574"
       sodipodi:rx="10.357142"
       sodipodi:ry="10.446428"
       d="m 533.21426,498.16574 a 10.357142,10.446428 0 1 1 -20.71429,0 10.357142,10.446428 0 1 1 20.71429,0 z"
       transform="matrix(1.725938,0,0,1.725938,-380.99039,-285.29814)" />
    <path
       sodipodi:type="arc"
       style="fill:#ff0000;fill-opacity:1;fill-rule:nonzero;stroke:#000000;stroke-opacity:1"
       id="path3923-4"
       sodipodi:cx="522.85712"
       sodipodi:cy="498.16574"
       sodipodi:rx="10.357142"
       sodipodi:ry="10.446428"
       d="m 533.21426,498.16574 a 10.357142,10.446428 0 1 1 -20.71429,0 10.357142,10.446428 0 1 1 20.71429,0 z"
       transform="matrix(1.725938,0,0,1.725938,-331.70468,-322.441)" />
    <path
       style="fill:#808080;fill-opacity:1;fill-rule:nonzero;stroke:#000000;stroke-opacity:1"
       d="m 369.61053,559.01617 26.58826,-19.21142 c 0,0 2.45024,-1.5471 5.6451,2.34702 3.19485,3.89412 1.47743,6.32247 1.47743,6.32247 l -26.71852,19.2593 c 0,0 -2.43626,2.39045 -5.82364,-1.99657 -3.38737,-4.38703 -1.16863,-6.7208 -1.16863,-6.7208 z"
       id="rect3900-8"
       inkscape:connector-curvature="0"
       sodipodi:nodetypes="cczcczc" />
    <path
       style="fill:#808080;fill-opacity:1;fill-rule:nonzero;stroke:#000000;stroke-opacity:1"
       d="m 314.34231,559.13225 26.58826,-19.21142 c 0,0 2.45024,-1.5471 5.6451,2.34702 3.19485,3.89412 1.47743,6.32247 1.47743,6.32247 l -26.71852,19.2593 c 0,0 -2.43626,2.39045 -5.82364,-1.99657 -3.38737,-4.38703 -1.16863,-6.7208 -1.16863,-6.7208 z"
       id="rect3900-8-8"
       inkscape:connector-curvature="0"
       sodipodi:nodetypes="cczcczc" />
    <path
       sodipodi:type="arc"
       style="fill:none;stroke:#000000;stroke-width:5;stroke-linecap:butt;stroke-linejoin:round;stroke-miterlimit:4;stroke-opacity:1;stroke-dasharray:none"
       id="path3995"
       sodipodi:cx="244.64285"
       sodipodi:cy="546.64789"
       sodipodi:rx="54.642857"
       sodipodi:ry="53.57143"
       d="m 299.28571,546.64789 a 54.642857,53.57143 0 1 1 -109.28571,0 54.642857,53.57143 0 1 1 109.28571,0 z"
       transform="matrix(1.06875,0,0,1.06875,-30.033482,-48.579811)" />
    <rect
       style="fill:#000000;fill-opacity:1;fill-rule:nonzero;stroke:#000000;stroke-width:4.94797564;stroke-linecap:butt;stroke-linejoin:round;stroke-miterlimit:4;stroke-opacity:1;stroke-dasharray:none"
       id="rect3999"
       width="79.285713"
       height="25.181963"
       x="190.71428"
       y="525.03741" />
    <rect
       style="fill:#000000;fill-opacity:1;fill-rule:nonzero;stroke:#000000;stroke-width:4.94797564;stroke-linecap:butt;stroke-linejoin:round;stroke-miterlimit:4;stroke-opacity:1;stroke-dasharray:none"
       id="rect3999-2"
       width="79.285713"
       height="25.181963"
       x="497.7193"
       y="-242.94812"
       transform="matrix(0,1,-1,0,0,0)" />
  </g>
  <g
     inkscape:groupmode="layer"
     id="layer2"
     inkscape:label="Original"
     style="opacity:0.32743363;display:none"
     sodipodi:insensitive="true">
    <image
       y="425.14792"
       x="122.85715"
       id="image3074"
       xlink:href="file:///C:/Users/Joos/Documents/My%20Dropbox/MyWayToYou/Graphics/SNES.png"
       height="213"
       width="500"
       style="fill:#bdbec3;fill-opacity:1" />
  </g>
</svg>
